inDegrees=yes
name=ik_S44_A10_T03
DataType=double
version=3
OpenSimVersion=4.3-2021-08-27-4bc7ad9
endheader
time	pelvis_tilt	pelvis_list	pelvis_rotation	pelvis_tx	pelvis_ty	pelvis_tz	hip_flexion_r	hip_adduction_r	hip_rotation_r	knee_angle_r	knee_angle_r_beta	ankle_angle_r	subtalar_angle_r	mtp_angle_r	hip_flexion_l	hip_adduction_l	hip_rotation_l	knee_angle_l	knee_angle_l_beta	ankle_angle_l	subtalar_angle_l	mtp_angle_l	lumbar_extension	lumbar_bending	lumbar_rotation	arm_flex_r	arm_add_r	arm_rot_r	elbow_flex_r	pro_sup_r	wrist_flex_r	wrist_dev_r	arm_flex_l	arm_add_l	arm_rot_l	elbow_flex_l	pro_sup_l	wrist_flex_l	wrist_dev_l
11.27999999999985	0.4477690505116564	-0.9205318608836397	23.96356699897447	0	0.9399999999999999	0	44.94620908741263	-10.00015145720387	-10.00136273833553	54.72378342528737	0.955110199919565	0	0	0	44.94620908741263	-10.00015145720387	-10.00136273833553	54.72378342528737	0.955110199919565	0	0	0	-0.01422922499245508	-1.104775306264738	2.573285630718866	10.9483352725243	-1.117782992758617	0.62875914329092	36.73978355780348	94.65043379178265	0	0	14.09379102941852	-1.051056759372349	4.169683344628337	37.75038245018083	72.04755397880297	0	0
11.29999999999985	0.4431763184139171	-0.9203453801924291	23.8134730595805	0	0.9399999999999999	0	44.94624574148505	-10.00015109622567	-10.00136065585639	54.72390930414962	0.9551123969201699	0	0	0	44.94624574148505	-10.00015109622567	-10.00136065585639	54.72390930414962	0.9551123969201699	0	0	0	-0.01478449861044768	-1.106872652373247	2.719833923102521	10.95961594079294	-0.9728147235291491	0.4457174575953526	35.49653899298644	94.29000675363572	0	0	14.1729814038831	-0.4126146239542286	4.598897027962281	35.7660027509186	72.32218814735673	0	0
11.31999999999985	0.426569945007731	-0.9218430907666307	23.66853345387482	0	0.9399999999999999	0	44.94628210817657	-10.00015073849448	-10.00135859072242	54.7240341621543	0.955114576103449	0	0	0	44.94628210817657	-10.00015073849448	-10.00135859072242	54.7240341621543	0.955114576103449	0	0	0	-0.02713738478582305	-1.104699095935566	2.865623965756659	10.99363743943356	-0.9813766384785605	0.3259787508637182	34.10531196694104	94.36702387037953	0	0	14.2018306624121	0.1781340237520985	5.262638681235102	33.8679163762967	72.58743257862005	0	0
11.33999999999985	0.4332352544720267	-0.9382625819824014	23.52464515268557	0	0.9399999999999999	0	44.94631824677553	-10.00015038394828	-10.00135654154703	54.72415837079827	0.9551167439532458	0	0	0	44.94631824677553	-10.00015038394828	-10.00135654154703	54.72415837079827	0.9551167439532458	0	0	0	-0.02465829299618523	-1.125282526392828	3.01132949853664	10.99671962812635	-0.8960435547004958	0.2122591288145545	32.57513123374604	94.4516531041746	0	0	14.24882334230718	0.6011262642062188	5.752290751903887	31.88012349393345	73.0947537354275	0	0
11.35999999999985	0.4224083187112516	-0.9555138892365531	23.38489760893387	0	0.9399999999999999	0	44.94635625820823	-10.00015001193194	-10.0013543890125	54.72428912932202	0.9551190261200102	0	0	0	44.94635625820823	-10.00015001193194	-10.0013543890125	54.72428912932202	0.9551190261200102	0	0	0	-0.03922821482057163	-1.13939182447494	3.111423830143904	11.02369756911241	-0.8403516142338975	0.1850782019624173	31.62945786798241	94.4593832063608	0	0	14.34987280519203	0.9442240746794081	6.021002624644296	29.96806875758531	73.38318697150076	0	0
11.37999999999985	0.3894282676853094	-0.9744220844933917	23.21903200309666	0	0.9399999999999999	0	44.94638927394365	-10.00014968947939	-10.00135252145569	54.72440277755432	0.955121009655853	0	0	0	44.94638927394365	-10.00014968947939	-10.00135252145569	54.72440277755432	0.955121009655853	0	0	0	-0.07372153905697772	-1.149157225261357	3.236715438131578	11.07865281276125	-0.7120860755670714	0.1430207288929059	29.86700161501248	93.76222372061858	0	0	14.42468816351544	1.298493789301091	6.454551226946312	28.3166208189164	72.87076584994877	0	0
11.39999999999985	0.3545022635074201	-0.9886359857235011	23.07421351512401	0	0.9399999999999999	0	44.94642390238953	-10.00014935153129	-10.00135056315551	54.7245219126647	0.9551230889557837	0	0	0	44.94642390238953	-10.00014935153129	-10.00135056315551	54.7245219126647	0.9551230889557837	0	0	0	-0.1080319217277574	-1.154238356002799	3.378580115934537	11.13763064302826	-0.5842985490877708	0.0886159705917953	28.44532609104182	92.78132323993334	0	0	14.38107436807433	1.655185996349263	7.016617017903989	26.71969233966997	72.15019376660756	0	0
11.41999999999985	0.2761918826000109	-1.047594955586265	22.95381489052274	0	0.9399999999999999	0	44.94646269835829	-10.00014897355622	-10.00134837100317	54.72465540627911	0.9551254188588856	0	0	0	44.94646269835829	-10.00014897355622	-10.00134837100317	54.72465540627911	0.9551254188588856	0	0	0	-0.2019260250524822	-1.181777067268903	3.480515727477991	11.29557411500712	-0.4177686192094949	0.02229577228280138	26.93778629994391	92.2137040527071	0	0	14.57544454276542	1.86054225079591	7.289438588804125	24.86906325854521	72.28220182121976	0	0
11.43999999999984	0.2549781954876925	-1.069615550392596	23.2877626225512	0	0.9399999999999999	0	44.94676400771346	-10.00014693081928	-10.00133482128335	54.72600661850263	0.9551490019610792	0	0	0	44.94676400771346	-10.00014693081928	-10.00133482128335	54.72600661850263	0.9551490019610792	0	0	0	-0.2402446026433593	-1.195912161920653	3.153095250732808	11.21557400577995	0.823697089822176	4.038586433317219	26.14711229930598	89.30219498581013	0	0	14.71999296516162	2.023496241771695	7.393634957339374	22.85858923759031	73.10994107658115	0	0
11.45999999999984	0.2281361924289795	-1.075272842320129	23.17012430946504	0	0.9399999999999999	0	44.94678342921894	-10.00014674495331	-10.00133373549161	54.72607402781451	0.9551501784755181	0	0	0	44.94678342921894	-10.00014674495331	-10.00133373549161	54.72607402781451	0.9551501784755181	0	0	0	-0.2653368588892023	-1.192002504153775	3.250373953250378	11.22960719678536	0.8085748285964663	3.984397432776142	24.52690487235636	90.43132419653152	0	0	14.69855299802462	2.295485541408802	7.727172972122126	21.89855030662318	73.42396428822796	0	0
11.47999999999984	0.2130929159467917	-1.097279010842214	23.27331977874283	0	0.9399999999999999	0	44.9468105945598	-10.00014648446856	-10.0013322146206	54.72616808877022	0.9551518201488927	0	0	0	44.9468105945598	-10.00014648446856	-10.0013322146206	54.72616808877022	0.9551518201488927	0	0	0	-0.2898727045650489	-1.206093462295111	3.138528870918702	11.16067334794008	1.160484386749332	4.666838146652411	23.04746899732087	91.17077094460559	0	0	14.57360728429204	2.415402153366891	8.151440771998816	20.5319981602461	73.78517685887719	0	0
11.49999999999984	0.08366895302950648	-1.187426873908281	23.31546670738864	0	0.9399999999999999	0	44.94683939361705	-10.00014620863934	-10.00133060312941	54.7262677940794	0.9551535603348198	0	0	0	44.94683939361705	-10.00014620863934	-10.00133060312941	54.7262677940794	0.9551535603348198	0	0	0	-0.446494165442765	-1.234880427664221	3.048512934390017	11.21777131410789	2.135376166564097	5.781330218519725	20.26645549036097	88.47926891474759	0	0	14.71878344938279	2.521791152834376	8.631205269160896	19.07071772781968	73.76381497780474	0	0
11.51999999999984	0.01810610971228793	-1.230506567362271	23.24444125956284	0	0.9399999999999999	0	44.94687700676231	-10.00014584840476	-10.00132849780594	54.72639781098511	0.9551558295579075	0	0	0	44.94687700676231	-10.00014584840476	-10.00132849780594	54.72639781098511	0.9551558295579075	0	0	0	-0.5216331051667913	-1.248863318753992	3.143125566453461	11.34685985818761	2.244204933453057	5.689338794917995	18.90223351154859	87.67140393622273	0	0	14.90654901335693	2.463827714643795	8.536770901365099	17.4394399061508	74.96862184527947	0	0
11.53999999999984	-0.007778206284797719	-1.238337950462288	23.19281937222909	0	0.9399999999999999	0	44.94691143325713	-10.00014551865598	-10.0013265703405	54.72651668761892	0.9551579043465712	0	0	0	44.94691143325713	-10.00014551865598	-10.0013265703405	54.72651668761892	0.9551579043465712	0	0	0	-0.5470804194772518	-1.246669894417463	3.201150438931645	11.36475442108449	2.641320963566052	5.94829647011572	18.1960776789282	87.16411901670135	0	0	14.89654790629302	2.538742217712704	8.8754838308971	16.30294485406099	75.58126189522318	0	0
11.55999999999984	-0.06250788267737391	-1.252077719231318	23.07825215494382	0	0.9399999999999999	0	44.94693074026399	-10.00014533405882	-10.0013254904296	54.72658339613314	0.9551590686297835	0	0	0	44.94693074026399	-10.00014533405882	-10.0013254904296	54.72658339613314	0.9551590686297835	0	0	0	-0.6002987510649886	-1.241326563527608	3.314401675760793	11.42267832503748	2.73673756546177	5.883580568728586	16.72341682731996	85.87087685117854	0	0	14.92263844279121	2.704099855985342	9.294189849421544	15.72643975805163	75.45149677297795	0	0
11.57999999999984	-0.1053898296192563	-1.268623104810426	23.19351336051398	0	0.9399999999999999	0	44.94696135066808	-10.00014504349035	-10.00132378621033	54.72668981194266	0.9551609259360359	0	0	0	44.94696135066808	-10.00014504349035	-10.00132378621033	54.72668981194266	0.9551609259360359	0	0	0	-0.6495137610592288	-1.237785752883956	3.207634445995123	11.47766301270907	3.473997506490363	6.670418790757926	16.1690188048727	83.97080184118809	0	0	15.33199888308743	2.963257036316258	9.512254319023578	14.66440759317305	76.04192083412497	0	0
11.59999999999984	-0.1117837210989255	-1.2778134043684	23.19563663658212	0	0.9399999999999999	0	44.94707156114314	-10.00014440116188	-10.00131899309096	54.72709724953099	0.9551680370634485	0	0	0	44.94707156114314	-10.00014440116188	-10.00131899309096	54.72709724953099	0.9551680370634485	0	0	0	-0.6580726739295274	-1.244260051171098	3.245538207183918	11.49115131578871	3.507367744607133	6.653899405517564	16.16725846759105	83.56552825677507	0	0	15.32499586431894	2.959249342912139	9.572701695343655	14.67962637499921	76.06568832638904	0	0
11.61999999999984	-0.1110639034944409	-1.2680796698223	23.38470716802931	0	0.9399999999999999	0	44.94709543246554	-10.00014417361816	-10.00131766003059	54.72717967146441	0.9551694755975626	0	0	0	44.94709543246554	-10.00014417361816	-10.00131766003059	54.72717967146441	0.9551694755975626	0	0	0	-0.656282348425513	-1.233493513505966	3.129805354421503	11.19237799385887	3.790324376283166	7.714340704778724	16.63139180324746	83.44914721079672	0	0	15.68133293292348	3.092390325993289	9.850952147575558	14.32141145540624	76.11379089364698	0	0
